<?xml version="1.0" encoding="utf-8"?>
<!-- Generator: Adobe Illustrator 24.2.3, SVG Export Plug-In . SVG Version: 6.00 Build 0)  -->
<svg version="1.1" id="Layer_1" xmlns="http://www.w3.org/2000/svg" xmlns:xlink="http://www.w3.org/1999/xlink" x="0px" y="0px"
	 viewBox="0 0 324 171" style="enable-background:new 0 0 324 171;" xml:space="preserve">
<style type="text/css">
	.st0{fill-rule:evenodd;clip-rule:evenodd;fill:#C5A170;}
	.st1{fill:#FFFFFF;}
	.st2{fill:#C5A170;}
</style>
<polygon class="st0" points="80.8,6.9 60.2,17.4 43.1,0.4 26,17.6 5.5,6.9 12.3,30.7 73.9,30.7 "/>
<path class="st1" d="M80.4,61.5H53.7v65.3H32.4V61.5H5.6V45h74.7V61.5z"/>
<rect x="121.2" y="0.2" class="st2" width="2.6" height="170.3"/>
<g>
	<path class="st1" d="M179.5,60.7h-2.4v-9.2l0.2-4.4h0l-4.9,13.6h-2.2l-4.9-13.6h0l0.2,4.4v9.2h-2.4V44.8h3.9l3.3,9.2l1.1,3.8h0
		l1.2-3.8l3.2-9.2h3.8V60.7z"/>
	<path class="st1" d="M197.9,58.5v2.2h-12.1V44.8h11.7V47h-9.1v4.6h7.1v2.2h-7.1v4.7H197.9z"/>
	<path class="st1" d="M212.7,45.4c1.1,0.5,1.9,1.3,2.7,2.4l-2,1.8c-0.5-1-1-1.7-1.7-2.1c-0.7-0.4-1.6-0.6-2.7-0.6
		c-1.1,0-2,0.2-2.6,0.7c-0.6,0.4-0.9,1-0.9,1.7c0,0.6,0.3,1.2,0.9,1.5c0.6,0.4,1.7,0.7,3.2,1c1.5,0.3,2.6,0.6,3.5,1
		c0.9,0.4,1.5,0.9,1.9,1.5c0.4,0.6,0.6,1.3,0.6,2.2c0,0.9-0.3,1.7-0.8,2.5c-0.5,0.7-1.3,1.2-2.3,1.6c-1,0.4-2.1,0.6-3.4,0.6
		c-3.3,0-5.6-1.1-7-3.2l1.8-1.8c0.5,1,1.2,1.7,2,2.1c0.8,0.4,1.9,0.7,3.1,0.7c1.2,0,2.1-0.2,2.7-0.6c0.7-0.4,1-1,1-1.7
		c0-0.6-0.3-1-0.9-1.4c-0.6-0.4-1.6-0.7-3.1-0.9c-1.5-0.3-2.7-0.6-3.6-1c-0.9-0.4-1.5-0.9-1.9-1.5c-0.4-0.6-0.6-1.3-0.6-2.2
		c0-0.9,0.3-1.7,0.8-2.5c0.5-0.7,1.2-1.3,2.2-1.8c1-0.4,2.1-0.6,3.3-0.6C210.4,44.6,211.7,44.8,212.7,45.4z"/>
	<path class="st1" d="M233.2,47h-5.5v13.7H225V47h-5.5v-2.2h13.7V47z"/>
	<path class="st1" d="M248.4,45.5c1.2,0.7,2,1.6,2.7,2.8c0.6,1.2,0.9,2.7,0.9,4.4c0,1.7-0.3,3.1-0.9,4.4c-0.6,1.2-1.5,2.2-2.7,2.8
		c-1.2,0.7-2.5,1-4.1,1c-1.6,0-2.9-0.3-4-1c-1.1-0.7-2-1.6-2.6-2.8c-0.6-1.2-0.9-2.7-0.9-4.4c0-1.7,0.3-3.1,0.9-4.4
		c0.6-1.2,1.5-2.2,2.6-2.8c1.1-0.7,2.5-1,4-1C245.9,44.6,247.2,44.9,248.4,45.5z M240.8,48.4c-0.9,1-1.3,2.5-1.3,4.4
		c0,1.9,0.4,3.3,1.3,4.4c0.9,1,2.1,1.6,3.6,1.6c1.5,0,2.7-0.5,3.6-1.6c0.9-1,1.3-2.5,1.3-4.4c0-1.9-0.4-3.3-1.3-4.4
		c-0.9-1-2.1-1.6-3.6-1.6C242.8,46.8,241.6,47.3,240.8,48.4z"/>
	<path class="st1" d="M259.6,58.1c0.4,0.5,0.6,1.1,0.6,1.8c0,0.9-0.2,1.8-0.7,2.5c-0.5,0.8-1.2,1.4-2.2,1.8l-1.3-1.1
		c0.7-0.2,1.2-0.6,1.7-1c0.5-0.4,0.8-0.9,0.9-1.5l-0.1,0c-0.1,0.1-0.4,0.2-0.7,0.2c-0.4,0-0.8-0.1-1.1-0.4c-0.3-0.3-0.5-0.7-0.5-1.2
		c0-0.5,0.2-0.9,0.5-1.3c0.4-0.3,0.8-0.5,1.3-0.5C258.7,57.4,259.2,57.7,259.6,58.1z"/>
	<path class="st1" d="M167.9,85.8l-2.5,2.8v4.9h-2.5V77.5h2.5v7.9l7.1-7.9h3.1l-5.9,6.5l6,9.4h-3L167.9,85.8z"/>
	<path class="st1" d="M191.4,79.6c1.4,1.4,2,3.3,2,5.9c0,2.5-0.7,4.5-2,5.9c-1.4,1.4-3.3,2.1-5.7,2.1h-5.5V77.5h5.5
		C188.1,77.5,190,78.2,191.4,79.6z M189.4,89.7c0.9-1,1.3-2.4,1.3-4.2c0-1.8-0.4-3.2-1.3-4.2c-0.9-1-2.1-1.5-3.8-1.5h-3v11.5h3
		C187.3,91.2,188.6,90.7,189.4,89.7z"/>
	<path class="st1" d="M210.2,91.2v2.2h-11.6V77.5h11.3v2.2h-8.7v4.6h6.8v2.2h-6.8v4.7H210.2z"/>
	<path class="st1" d="M233.5,78.1c1,0.5,1.9,1.3,2.6,2.4l-1.9,1.8c-0.4-1-1-1.7-1.6-2.1c-0.7-0.4-1.5-0.6-2.6-0.6
		c-1.1,0-1.9,0.2-2.5,0.7c-0.6,0.4-0.9,1-0.9,1.7c0,0.6,0.3,1.2,0.9,1.5c0.6,0.4,1.6,0.7,3.1,1c1.4,0.3,2.5,0.6,3.3,1
		c0.8,0.4,1.4,0.9,1.8,1.5c0.4,0.6,0.6,1.3,0.6,2.2c0,0.9-0.3,1.7-0.8,2.5c-0.5,0.7-1.2,1.2-2.2,1.6c-0.9,0.4-2,0.6-3.2,0.6
		c-3.2,0-5.4-1.1-6.7-3.2l1.8-1.8c0.5,1,1.2,1.7,1.9,2.1c0.8,0.4,1.8,0.7,3,0.7c1.1,0,2-0.2,2.6-0.6c0.6-0.4,1-1,1-1.7
		c0-0.6-0.3-1-0.9-1.4c-0.6-0.4-1.6-0.7-3-0.9c-1.4-0.3-2.6-0.6-3.4-1c-0.8-0.4-1.5-0.9-1.9-1.5c-0.4-0.6-0.6-1.3-0.6-2.2
		c0-0.9,0.2-1.7,0.7-2.5c0.5-0.7,1.2-1.3,2.1-1.8c0.9-0.4,2-0.6,3.2-0.6C231.3,77.3,232.5,77.6,233.5,78.1z"/>
	<path class="st1" d="M250.1,89.3h-6.6l-1.5,4.2h-2.6l5.9-15.9h3l5.9,15.9h-2.7L250.1,89.3z M249.4,87.2l-1.8-5.1l-0.7-2.3h-0.1
		l-0.7,2.2l-1.8,5.1H249.4z"/>
	<path class="st1" d="M278.4,91.2v2.2h-12.6v-2.1l9.4-11.6h-9.2v-2.2h12.1v2.1l-9.4,11.6H278.4z M270.7,75.8l-2.7-4h2.1l1.9,2.6
		l1.9-2.6h2.1l-2.7,4H270.7z"/>
	<path class="st1" d="M285.7,93.4h-2.5V77.5h2.5V93.4z"/>
	<path class="st1" d="M301.1,87.8c0,1.8-0.5,3.3-1.5,4.3c-1,1-2.4,1.6-4.2,1.6c-1.6,0-2.9-0.4-3.7-1.2c-0.9-0.8-1.3-1.9-1.3-3.3
		c0-0.5,0-0.9,0.1-1.3l2.4-0.5c-0.1,0.6-0.1,1-0.1,1.2c0,1,0.2,1.7,0.6,2.1c0.4,0.4,1.1,0.7,2,0.7c1.1,0,2-0.3,2.4-1
		c0.5-0.7,0.7-1.7,0.7-3.1v-9.8h2.5V87.8z"/>
	<path class="st1" d="M318.6,91.2v2.2H307V77.5h11.3v2.2h-8.7v4.6h6.8v2.2h-6.8v4.7H318.6z"/>
	<path class="st1" d="M167.9,118.5l-2.5,2.8v4.9h-2.5v-15.9h2.5v7.9l7.1-7.9h3.1l-5.9,6.5l6,9.4h-3L167.9,118.5z"/>
	<path class="st1" d="M186,119.8h-3.3v6.3h-2.5v-15.9h6.3c1.7,0,3,0.4,4,1.3c1,0.8,1.5,2,1.5,3.5c0,1.1-0.3,2.1-0.9,2.9
		c-0.6,0.8-1.4,1.3-2.4,1.6l4.2,6.6H190L186,119.8z M182.7,117.7h3.6c1,0,1.8-0.2,2.3-0.6c0.5-0.4,0.8-1.1,0.8-2
		c0-0.9-0.3-1.5-0.8-2c-0.5-0.4-1.3-0.6-2.3-0.6h-3.6V117.7z"/>
	<path class="st1" d="M207.2,122h-6.6l-1.5,4.2h-2.6l5.9-15.9h3l5.9,15.9h-2.7L207.2,122z M206.4,119.9l-1.8-5.1l-0.7-2.3h-0.1
		l-0.7,2.2l-1.8,5.1H206.4z M204.7,108.4h-1.9l1.3-3.6h2.7L204.7,108.4z"/>
	<path class="st1" d="M226.8,123.9v2.2h-11.1v-15.9h2.5v13.7H226.8z M222,114.3h-1.6l0.5-5h2.3L222,114.3z"/>
	<path class="st1" d="M241.5,111c1.1,0.7,2,1.6,2.6,2.8c0.6,1.2,0.9,2.7,0.9,4.4c0,1.7-0.3,3.1-0.9,4.4c-0.6,1.2-1.4,2.2-2.6,2.8
		c-1.1,0.7-2.4,1-3.9,1c-1.5,0-2.8-0.3-3.9-1c-1.1-0.7-1.9-1.6-2.5-2.8c-0.6-1.2-0.9-2.7-0.9-4.4c0-1.7,0.3-3.1,0.9-4.4
		c0.6-1.2,1.4-2.2,2.5-2.8c1.1-0.7,2.4-1,3.9-1C239.1,110,240.4,110.4,241.5,111z M234.1,113.8c-0.8,1-1.2,2.5-1.2,4.4
		c0,1.9,0.4,3.3,1.2,4.4c0.8,1,2,1.6,3.4,1.6c1.5,0,2.6-0.5,3.5-1.6c0.8-1,1.2-2.5,1.2-4.4c0-1.9-0.4-3.3-1.2-4.4
		c-0.8-1-2-1.6-3.5-1.6C236.1,112.3,235,112.8,234.1,113.8z"/>
	<path class="st1" d="M256.7,126.1h-2.9l-5.8-15.9h2.7l3.6,10.6l0.9,3.1l0.9-3.1l3.6-10.6h2.7L256.7,126.1z"/>
	<path class="st1" d="M275.6,110.8c1,0.5,1.9,1.3,2.6,2.4l-1.9,1.8c-0.4-1-1-1.7-1.6-2.1c-0.7-0.4-1.5-0.6-2.6-0.6
		c-1.1,0-1.9,0.2-2.5,0.7c-0.6,0.4-0.9,1-0.9,1.7c0,0.6,0.3,1.2,0.9,1.5c0.6,0.4,1.6,0.7,3.1,1c1.4,0.3,2.5,0.6,3.3,1
		c0.8,0.4,1.4,0.9,1.8,1.5c0.4,0.6,0.6,1.3,0.6,2.2c0,0.9-0.3,1.7-0.8,2.5c-0.5,0.7-1.2,1.2-2.2,1.6c-0.9,0.4-2,0.6-3.2,0.6
		c-3.2,0-5.4-1.1-6.7-3.2l1.8-1.8c0.5,1,1.2,1.7,1.9,2.1c0.8,0.4,1.8,0.7,3,0.7c1.1,0,2-0.2,2.6-0.6c0.6-0.4,1-1,1-1.7
		c0-0.6-0.3-1-0.9-1.4c-0.6-0.4-1.6-0.7-3-0.9c-1.4-0.3-2.6-0.6-3.4-1c-0.8-0.4-1.5-0.9-1.9-1.5c-0.4-0.6-0.6-1.3-0.6-2.2
		c0-0.9,0.2-1.7,0.7-2.5c0.5-0.7,1.2-1.3,2.1-1.8c0.9-0.4,2-0.6,3.2-0.6C273.4,110,274.6,110.3,275.6,110.8z"/>
	<path class="st1" d="M288.4,118.5l-2.5,2.8v4.9h-2.5v-15.9h2.5v7.9l7.1-7.9h3.1l-5.9,6.5l6,9.4h-3L288.4,118.5z"/>
	<path class="st1" d="M307.7,120.1v6.1h-2.5v-6.1l-5.5-9.8h2.8l2.8,5.1l1.2,2.4l1.2-2.4l2.8-5.1h2.8L307.7,120.1z"/>
</g>
</svg>
