<?xml version="1.0" encoding="utf-8"?>
<!-- Generator: Adobe Illustrator 24.2.3, SVG Export Plug-In . SVG Version: 6.00 Build 0)  -->
<svg version="1.1" id="Layer_1" xmlns="http://www.w3.org/2000/svg" xmlns:xlink="http://www.w3.org/1999/xlink" x="0px" y="0px"
	 viewBox="0 0 197.3 52.6" style="enable-background:new 0 0 197.3 52.6;" xml:space="preserve">
<style type="text/css">
	.st0{fill:#FFFFFF;}
	.st1{fill-rule:evenodd;clip-rule:evenodd;fill:#C5A170;}
</style>
<path class="st0" d="M28.3,23.4H18.2v24.8h-8.1V23.4H0v-6.3h28.3V23.4z"/>
<path class="st0" d="M62.7,46.2c1.3,1,2.5,1.6,3.8,1.8l-4.4,4.6c-2-0.5-3.7-1.2-4.9-2.1c-1.3-0.9-2.4-2.1-3.4-3.6l-7.1-10.2H43V48
	h-7.9V17h14.8c3.8,0,6.7,0.8,8.7,2.5s3,4.1,3,7.3c0,2.4-0.6,4.4-1.8,6c-1.2,1.6-3,2.7-5.3,3.3l4.7,6.3
	C60.2,44.1,61.4,45.3,62.7,46.2z M43,31.1h5.5c1.7,0,3-0.3,3.8-0.9s1.2-1.6,1.2-3c0-1.3-0.4-2.3-1.2-3c-0.8-0.6-2-0.9-3.8-0.9H43
	V31.1z"/>
<path class="st0" d="M99,48.2h-9l-9.6-16.8l-2.3-4.7l0,0l0.2,5.8v15.7h-7.1v-31h9L89.8,34l2.4,4.7l0,0L92,32.9V17.2h7.1L99,48.2
	L99,48.2z"/>
<path class="st0" d="M125.8,41.1h-10.7l-2.2,7h-8.1l10.9-31h9.7l10.9,31H128L125.8,41.1z M124.1,35.6l-2.3-7.4l-1.4-4.9h-0.1
	l-1.3,4.8l-2.3,7.5H124.1z"/>
<path class="st0" d="M156.4,48.1h-9.5l-11-31h8.5l5.7,18.8l1.7,6.1l1.6-6l5.8-18.8h8.2L156.4,48.1z"/>
<path class="st0" d="M186.8,41.1h-10.7l-2.2,7h-8.1l10.9-31h9.7l10.9,31H189L186.8,41.1z M185.2,35.6l-2.3-7.4l-1.4-4.9h-0.1
	l-1.3,4.8l-2.4,7.5H185.2z"/>
<polygon class="st1" points="28.7,2.5 20.9,6.5 14.4,0 7.9,6.5 0.1,2.5 2.7,11.6 26.1,11.6 "/>
</svg>
